<mxfile host="app.diagrams.net" modified="2022-08-09T10:16:59.581Z" agent="5.0 (X11; Linux x86_64) AppleWebKit/537.36 (KHTML, like Gecko) Chrome/104.0.5112.81 Safari/537.36" etag="UW5jLjHLwL-ylifarefZ" version="20.2.3" type="github">
  <diagram id="syWQ5ecYPsf6VrKhQ5t9" name="PÃ¡gina-1">
    <mxGraphModel dx="1422" dy="772" grid="1" gridSize="10" guides="1" tooltips="1" connect="1" arrows="1" fold="1" page="1" pageScale="1" pageWidth="827" pageHeight="1169" math="0" shadow="0">
      <root>
        <mxCell id="0" />
        <mxCell id="1" parent="0" />
        <mxCell id="6I2RDFlL8Gj4Q4Dyf00T-1" value="&lt;b&gt;&lt;font style=&quot;font-size: 24px;&quot;&gt;S&lt;/font&gt;&lt;/b&gt;" style="whiteSpace=wrap;html=1;aspect=fixed;" vertex="1" parent="1">
          <mxGeometry x="120" y="200" width="80" height="80" as="geometry" />
        </mxCell>
        <mxCell id="6I2RDFlL8Gj4Q4Dyf00T-2" value="&lt;b&gt;&lt;font style=&quot;font-size: 24px;&quot;&gt;I&lt;/font&gt;&lt;/b&gt;" style="whiteSpace=wrap;html=1;aspect=fixed;" vertex="1" parent="1">
          <mxGeometry x="280" y="200" width="80" height="80" as="geometry" />
        </mxCell>
        <mxCell id="6I2RDFlL8Gj4Q4Dyf00T-3" value="" style="endArrow=classic;html=1;rounded=0;" edge="1" parent="1" source="6I2RDFlL8Gj4Q4Dyf00T-1" target="6I2RDFlL8Gj4Q4Dyf00T-2">
          <mxGeometry width="50" height="50" relative="1" as="geometry">
            <mxPoint x="390" y="420" as="sourcePoint" />
            <mxPoint x="440" y="370" as="targetPoint" />
          </mxGeometry>
        </mxCell>
        <mxCell id="6I2RDFlL8Gj4Q4Dyf00T-4" value="" style="curved=1;endArrow=classic;html=1;rounded=0;" edge="1" parent="1" source="6I2RDFlL8Gj4Q4Dyf00T-2" target="6I2RDFlL8Gj4Q4Dyf00T-1">
          <mxGeometry width="50" height="50" relative="1" as="geometry">
            <mxPoint x="390" y="420" as="sourcePoint" />
            <mxPoint x="440" y="370" as="targetPoint" />
            <Array as="points">
              <mxPoint x="290" y="330" />
              <mxPoint x="240" y="360" />
              <mxPoint x="170" y="340" />
            </Array>
          </mxGeometry>
        </mxCell>
        <mxCell id="6I2RDFlL8Gj4Q4Dyf00T-7" value="b" style="edgeLabel;html=1;align=center;verticalAlign=middle;resizable=0;points=[];fontSize=24;" vertex="1" connectable="0" parent="6I2RDFlL8Gj4Q4Dyf00T-4">
          <mxGeometry x="0.0187" y="-7" relative="1" as="geometry">
            <mxPoint as="offset" />
          </mxGeometry>
        </mxCell>
        <mxCell id="6I2RDFlL8Gj4Q4Dyf00T-6" value="a" style="text;html=1;align=center;verticalAlign=middle;resizable=0;points=[];autosize=1;strokeColor=none;fillColor=none;fontSize=24;" vertex="1" parent="1">
          <mxGeometry x="220" y="210" width="40" height="40" as="geometry" />
        </mxCell>
      </root>
    </mxGraphModel>
  </diagram>
</mxfile>
